<svg width="27" height="26" viewBox="0 0 27 26" fill="none" xmlns="http://www.w3.org/2000/svg">
<path d="M21.375 11.9167H8.0325L12.1163 7.19333C12.3072 6.9721 12.3991 6.68688 12.3716 6.40042C12.3442 6.11395 12.1997 5.84972 11.97 5.66583C11.7403 5.48195 11.4441 5.39348 11.1466 5.41989C10.8491 5.44631 10.5747 5.58543 10.3837 5.80667L4.75875 12.3067C4.72091 12.3584 4.68706 12.4127 4.6575 12.4692C4.6575 12.5233 4.6575 12.5558 4.57875 12.61C4.52776 12.7342 4.50106 12.8664 4.5 13C4.50106 13.1336 4.52776 13.2658 4.57875 13.39C4.57875 13.4442 4.57875 13.4767 4.6575 13.5308C4.68706 13.5873 4.72091 13.6416 4.75875 13.6933L10.3837 20.1933C10.4895 20.3156 10.622 20.414 10.7717 20.4814C10.9214 20.5488 11.0847 20.5836 11.25 20.5833C11.5129 20.5838 11.7676 20.4957 11.97 20.3342C12.0839 20.2432 12.1781 20.1315 12.2471 20.0055C12.3161 19.8794 12.3586 19.7415 12.3722 19.5996C12.3858 19.4577 12.3702 19.3147 12.3263 19.1786C12.2823 19.0425 12.211 18.9161 12.1163 18.8067L8.0325 14.0833H21.375C21.6734 14.0833 21.9595 13.9692 22.1705 13.766C22.3815 13.5629 22.5 13.2873 22.5 13C22.5 12.7127 22.3815 12.4371 22.1705 12.234C21.9595 12.0308 21.6734 11.9167 21.375 11.9167Z" fill="black"/>
</svg>
