<svg width="323" height="152" viewBox="0 0 323 152" fill="none" xmlns="http://www.w3.org/2000/svg">
<g clip-path="url(#clip0_53_974)">
<path d="M64.837 107.795C63.8852 107.796 62.9727 108.175 62.2997 108.848C61.6267 109.522 61.2481 110.435 61.2471 111.387V119.79C61.2481 120.742 61.6267 121.655 62.2997 122.329C62.9727 123.002 63.8852 123.381 64.837 123.382H69.3905C70.3423 123.381 71.2548 123.002 71.9279 122.329C72.6009 121.655 72.9794 120.742 72.9805 119.79V111.387C72.9794 110.435 72.6009 109.522 71.9279 108.848C71.2548 108.175 70.3423 107.796 69.3905 107.795H64.837Z" fill="#3F3D56"/>
<path d="M149.011 123.661H144.457C143.431 123.66 142.448 123.252 141.722 122.526C140.997 121.8 140.589 120.816 140.588 119.79V111.387C140.589 110.36 140.997 109.376 141.722 108.651C142.448 107.925 143.431 107.517 144.457 107.515H149.011C150.037 107.517 151.02 107.925 151.745 108.651C152.471 109.376 152.879 110.36 152.88 111.387V119.79C152.879 120.816 152.471 121.8 151.745 122.526C151.02 123.252 150.037 123.66 149.011 123.661Z" fill="#3F3D56"/>
<path d="M145.989 116.933H67.579C64.0106 116.933 61.1074 114.828 61.1074 112.241V97.1557L64.9993 93.0549H149.326L152.461 97.1643V112.241C152.461 114.828 149.557 116.933 145.989 116.933Z" fill="#CCCCCC"/>
<path d="M148.96 100.602H65.4463L64.5977 87.5816L65.1377 86.2493L68.2769 78.5203H145.564L149.809 87.2971L148.96 100.602Z" fill="#CCCCCC"/>
<path d="M149.667 87.325L149.044 97.1078H130.67V89.8405L149.144 86.246L149.667 87.325Z" fill="white"/>
<path d="M83.4572 89.8405V97.1078H65.3595L64.7393 87.6044L65.2674 86.302L83.4572 89.8405Z" fill="white"/>
<path d="M145.098 80.7564H68.7422L76.8861 53.5959C77.2183 52.4742 77.9023 51.4891 78.8371 50.7863C79.7719 50.0835 80.9079 49.7002 82.0772 49.6931L132.645 49.2112C133.867 49.1994 135.058 49.597 136.028 50.3407C136.997 51.0843 137.691 52.1314 137.997 53.3149L145.098 80.7564Z" fill="#CCCCCC"/>
<path d="M139.22 78.1882L74.6077 77.4216C74.526 77.4206 74.4457 77.4005 74.3732 77.3628C74.3007 77.3251 74.2381 77.271 74.1903 77.2046C74.1426 77.1383 74.111 77.0617 74.0982 76.981C74.0854 76.9003 74.0918 76.8177 74.1167 76.7398L80.3108 57.4042C80.3446 57.2988 80.4109 57.2069 80.5003 57.1416C80.5897 57.0764 80.6974 57.0413 80.808 57.0413H132.777C132.888 57.0413 132.996 57.0764 133.085 57.1416C133.174 57.2068 133.241 57.2986 133.274 57.404L139.724 77.5062C139.749 77.585 139.755 77.6687 139.742 77.7505C139.728 77.8322 139.696 77.9095 139.646 77.9761C139.597 78.0427 139.533 78.0967 139.459 78.1335C139.385 78.1704 139.303 78.1891 139.22 78.1882Z" fill="white"/>
<path d="M115.628 52.5257H98.2129C98.0662 52.5257 97.933 52.3811 97.8655 52.1483C97.7982 51.9099 97.8079 51.6564 97.8933 51.4239L99.3294 47.7902C99.4026 47.605 99.5221 47.4944 99.6491 47.4944H114.192C114.319 47.4944 114.439 47.605 114.512 47.7902L115.948 51.4239C116.033 51.6564 116.043 51.9099 115.976 52.1483C115.908 52.3811 115.775 52.5257 115.628 52.5257Z" fill="#FF621F"/>
<path d="M68.79 80.1973H57.3359V77.6785C57.3368 76.8642 57.6606 76.0835 58.2361 75.5077C58.8116 74.9319 59.5918 74.608 60.4057 74.6071H68.79V80.1973Z" fill="#CCCCCC"/>
<path d="M156.512 80.1973H145.058V74.6071H153.442C154.256 74.608 155.036 74.9319 155.612 75.5077C156.187 76.0835 156.511 76.8642 156.512 77.6785V80.1973Z" fill="#CCCCCC"/>
<path d="M55.996 119.463L0 139.589L0.237707 140.251L56.2337 120.125L55.996 119.463Z" fill="#3F3D56"/>
<path d="M157.499 119.465L157.262 120.127L213.259 140.248L213.497 139.586L157.499 119.465Z" fill="#3F3D56"/>
<path d="M110.035 134.058H106.684V129.726H110.035V134.058ZM110.035 125.395H106.684V121.063H110.035V125.395Z" fill="#E6E6E6"/>
<path d="M110.035 152H106.684V147.669H110.035V152ZM110.035 143.337H106.684V139.006H110.035V143.337Z" fill="#E6E6E6"/>
<path d="M257.308 137.038H253.616L251.859 122.792H257.308V137.038Z" fill="#FFB8B8"/>
<path d="M258.249 140.618H246.346V140.467C246.347 139.238 246.836 138.06 247.704 137.191C248.573 136.322 249.75 135.833 250.979 135.832H258.249L258.249 140.618Z" fill="#2F2E41"/>
<path d="M304.91 130.039L301.746 131.941L292.907 120.635L297.577 117.828L304.91 130.039Z" fill="#FFB8B8"/>
<path d="M297.357 138.756L297.28 138.627C296.648 137.573 296.461 136.311 296.758 135.119C297.055 133.926 297.813 132.9 298.865 132.266L305.097 128.52L307.56 132.623L297.357 138.756Z" fill="#2F2E41"/>
<path d="M258.267 134.098L258.203 134.098C256.407 134.092 254.613 133.989 252.829 133.788C252.149 133.721 251.411 133.648 250.522 133.575L250.491 133.569C249.885 133.389 249.868 127.697 250.125 108.216C250.257 98.2374 250.406 86.9279 250.228 79.7255L250.226 79.6547L250.28 79.6081C256.865 73.8776 265.322 71.7296 274.092 73.5596L274.157 73.5732L274.191 73.6304C277.819 79.7722 283.297 88.6191 288.594 97.1749C300.755 116.815 304.233 122.591 303.852 123.027L303.806 123.063C302.976 123.478 302.352 123.798 301.822 124.07C300.047 124.98 299.313 125.357 295.365 126.983L295.268 127.024L295.197 126.946C282.858 113.418 272.589 98.3064 266.238 84.3369C265.496 89.106 264.595 95.3335 263.643 101.913C260.906 120.835 259.056 133.294 258.311 134.052L258.267 134.098Z" fill="#2F2E41"/>
<path d="M277.432 19.3154C278.675 14.1818 279.728 8.39168 277.384 3.66356C275.758 0.382968 269.743 -0.721792 266.294 0.460077C262.846 1.64195 260.353 4.84845 259.256 8.34454C258.16 11.8406 258.287 15.6079 258.765 19.2424C265.107 19.1205 271.449 18.9986 277.432 19.3154Z" fill="#2F2E41"/>
<path d="M266.729 19.314C270.814 19.314 274.125 16.0013 274.125 11.9148C274.125 7.82827 270.814 4.5155 266.729 4.5155C262.645 4.5155 259.334 7.82827 259.334 11.9148C259.334 16.0013 262.645 19.314 266.729 19.314Z" fill="#FFB8B8"/>
<path d="M275.771 10.3906C275.794 9.14525 275.567 7.9079 275.103 6.75205C274.639 5.59621 273.948 4.54545 273.07 3.66221C272.192 2.77897 271.146 2.08127 269.994 1.61057C268.841 1.13987 267.606 0.905776 266.361 0.922194C265.116 0.938613 263.887 1.20521 262.747 1.70615C261.608 2.20708 260.58 2.93213 259.726 3.83821C258.872 4.7443 258.208 5.81293 257.775 6.9806C257.342 8.14828 257.148 9.39119 257.204 10.6355C263.534 10.6489 269.864 10.6624 275.771 10.3906Z" fill="#2F2E41"/>
<path d="M261.592 81.1809C268.949 81.148 276.258 82.3724 283.204 84.8011C283.446 73.1376 279.432 61.4524 272.176 52.7107L272.122 52.6454L272.149 52.5652C274.088 46.9618 276.091 41.1699 277.881 35.4066L277.854 35.3098C276.599 30.844 273.904 26.3313 269.616 21.5135C269.15 21.0313 268.519 20.7442 267.851 20.7103C267.182 20.6764 266.525 20.8983 266.013 21.3309C258.391 28.3217 254.247 38.7961 255.198 48.6668L255.201 48.6958L255.192 48.7239C251.835 60.1051 250.616 65.9509 249.54 71.1085C248.756 74.8709 248.077 78.1287 246.713 82.7835C251.601 81.7194 256.589 81.1821 261.592 81.1809Z" fill="#3F3D56"/>
<path opacity="0.1" d="M272.424 45.2027L261.501 68.9953L255.261 62.6758L272.424 45.2027Z" fill="black"/>
<path d="M247.906 58.4182L248.668 59.8987C248.675 59.9124 248.676 59.9283 248.671 59.943C248.667 59.9576 248.656 59.9698 248.643 59.9769L248.606 59.9958L252.573 67.7085C252.683 67.922 252.704 68.1703 252.63 68.3989C252.557 68.6275 252.396 68.8176 252.183 68.9275L247.366 71.4077C247.261 71.4621 247.145 71.4951 247.027 71.5049C246.909 71.5147 246.789 71.5011 246.676 71.4648C246.563 71.4285 246.458 71.3703 246.368 71.2935C246.277 71.2167 246.203 71.1227 246.148 71.0171L242.32 63.5748L242.293 63.5885C242.284 63.5935 242.273 63.5944 242.262 63.5912C242.252 63.5879 242.243 63.5806 242.238 63.571L241.805 62.7284C241.802 62.7236 241.801 62.7184 241.8 62.713C241.8 62.7076 241.801 62.7022 241.802 62.6971C241.804 62.6919 241.806 62.6872 241.81 62.683C241.813 62.6789 241.818 62.6755 241.822 62.6731L241.849 62.6594L241.686 62.342L241.659 62.3558C241.649 62.361 241.637 62.3619 241.626 62.3584C241.615 62.3549 241.606 62.3472 241.601 62.3371L241.174 61.506C241.169 61.4959 241.168 61.4841 241.171 61.4733C241.174 61.4625 241.182 61.4535 241.192 61.4483L241.219 61.4345L240.996 61.0012L240.969 61.0152C240.96 61.0199 240.949 61.0207 240.94 61.0177C240.93 61.0146 240.922 61.0079 240.918 60.9989L240.684 60.5453C240.68 60.5363 240.679 60.5258 240.682 60.5162C240.685 60.5065 240.692 60.4985 240.701 60.4938L240.728 60.4798L240.256 59.5614C240.146 59.3481 240.125 59.0998 240.198 58.8713C240.272 58.6428 240.433 58.4527 240.646 58.3429L245.463 55.8626C245.676 55.7528 245.924 55.7322 246.152 55.8054C246.381 55.8786 246.571 56.0396 246.681 56.2529L247.791 58.412L247.828 58.3931C247.842 58.3861 247.858 58.3848 247.872 58.3895C247.887 58.3942 247.899 58.4045 247.906 58.4182Z" fill="#3F3D56"/>
<path d="M246.378 56.6104L252.223 67.9736C252.292 68.109 252.305 68.2665 252.259 68.4115C252.212 68.5565 252.11 68.677 251.975 68.7467L247.364 71.1209C247.229 71.1907 247.072 71.204 246.927 71.1579C246.782 71.1117 246.662 71.01 246.592 70.8749L246.591 70.8733L240.746 59.5102C240.712 59.4431 240.691 59.37 240.685 59.2948C240.678 59.2197 240.687 59.144 240.71 59.0722C240.733 59.0004 240.77 58.9338 240.819 58.8763C240.867 58.8188 240.927 58.7714 240.994 58.7369L241.684 58.3815L241.73 58.4701C241.758 58.5253 241.797 58.5744 241.844 58.6145C241.892 58.6546 241.946 58.685 242.006 58.704C242.065 58.7229 242.127 58.7301 242.189 58.7249C242.251 58.7198 242.311 58.7025 242.366 58.6741L244.711 57.4667C244.822 57.4093 244.907 57.31 244.945 57.1905C244.983 57.0711 244.972 56.9414 244.915 56.8299L244.869 56.7413L245.605 56.3626C245.74 56.2929 245.897 56.2798 246.042 56.3262C246.187 56.3726 246.308 56.4747 246.378 56.6101L246.378 56.6104Z" fill="#FF621F"/>
<path d="M248.072 70.4927C248.514 70.462 248.943 70.3347 249.33 70.12C249.717 69.9052 250.053 69.6081 250.313 69.2496C250.573 68.8912 250.751 68.48 250.835 68.0452C250.919 67.6103 250.906 67.1624 250.799 66.7328L259.799 60.833L254.666 58.6143L246.906 64.5571C246.197 64.7861 245.596 65.2675 245.218 65.91C244.84 66.5525 244.71 67.3114 244.854 68.0431C244.998 68.7747 245.405 69.4282 245.998 69.8797C246.591 70.3312 247.329 70.5493 248.072 70.4927Z" fill="#FFB8B8"/>
<path d="M256.732 66.2424L256.619 66.1621C254.477 64.5848 252.099 62.9536 249.799 61.3761L249.661 61.2813L249.77 61.154C254.678 55.4082 259.592 49.4067 264.345 43.601C264.341 43.5917 264.338 43.5849 264.336 43.5801L264.38 43.5573L264.399 43.5342L264.41 43.5426L264.438 43.528L264.309 43.538L262.844 32.0442C261.521 30.2383 261.267 26.6527 263.001 24.1498C264.797 21.557 268.597 20.6893 271.133 22.2921C271.797 22.7383 272.353 23.3284 272.759 24.0185C273.164 24.7086 273.409 25.4811 273.476 26.2789C273.57 26.9897 273.505 27.7125 273.284 28.3946C273.063 29.0768 272.693 29.701 272.201 30.2217C272.823 36.3044 272.847 41.7413 272.87 47.0005L272.87 47.053L272.838 47.0962C267.771 53.5365 262.206 59.9426 256.823 66.1377L256.732 66.2424Z" fill="#3F3D56"/>
<path d="M106.823 34.8648C116.007 34.8648 123.451 27.4161 123.451 18.2277C123.451 9.03925 116.007 1.59056 106.823 1.59056C97.6392 1.59056 90.1943 9.03925 90.1943 18.2277C90.1943 27.4161 97.6392 34.8648 106.823 34.8648Z" fill="#FF621F"/>
<path d="M105.239 25.2505L100.262 18.8479L103.156 16.5956L105.513 19.6272L113.473 11.2189L116.136 13.7424L105.239 25.2505Z" fill="white"/>
<path d="M322.649 141.076H238.609C238.516 141.076 238.427 141.039 238.361 140.973C238.295 140.907 238.258 140.818 238.258 140.724C238.258 140.631 238.295 140.541 238.361 140.475C238.427 140.41 238.516 140.372 238.609 140.372H322.649C322.742 140.372 322.831 140.41 322.897 140.475C322.963 140.541 323 140.631 323 140.724C323 140.818 322.963 140.907 322.897 140.973C322.831 141.039 322.742 141.076 322.649 141.076Z" fill="#3F3D56"/>
</g>
<defs>
<clipPath id="clip0_53_974">
<rect width="323" height="152" fill="white"/>
</clipPath>
</defs>
</svg>
