<svg width="192" height="184" viewBox="0 0 192 184" fill="none" xmlns="http://www.w3.org/2000/svg">
<g clip-path="url(#clip0_85_1188)">
<path d="M172.904 178.26C173.069 178.269 173.231 178.226 173.371 178.139C173.51 178.051 173.619 177.923 173.682 177.772C173.746 177.62 173.761 177.453 173.726 177.293C173.69 177.132 173.606 176.986 173.485 176.875L173.429 176.661C173.436 176.643 173.444 176.625 173.453 176.608C173.616 176.219 173.891 175.886 174.243 175.652C174.595 175.417 175.008 175.292 175.431 175.292C175.854 175.292 176.268 175.417 176.62 175.652C176.972 175.886 177.246 176.219 177.409 176.608C178.057 178.165 178.88 179.722 179.081 181.371C179.17 182.098 179.133 182.835 178.972 183.55C180.489 180.241 181.277 176.645 181.284 173.006C181.285 172.091 181.234 171.177 181.133 170.268C181.048 169.523 180.931 168.783 180.781 168.05C179.969 164.065 178.22 160.33 175.678 157.154C174.449 156.485 173.455 155.456 172.831 154.205C172.603 153.755 172.443 153.274 172.355 152.778C172.493 152.796 172.88 150.687 172.774 150.557C172.968 150.265 173.313 150.121 173.524 149.833C174.58 148.427 176.019 148.659 176.776 150.592C178.388 151.404 178.402 152.753 177.413 154.05C176.783 154.873 176.709 155.991 176.146 156.862C176.202 156.936 176.262 157.006 176.318 157.077C177.357 158.411 178.262 159.844 179.021 161.354C178.837 159.662 179.057 157.95 179.665 156.36C180.277 154.88 181.425 153.629 182.449 152.349C182.718 152.006 183.082 151.749 183.497 151.612C183.911 151.475 184.357 151.464 184.778 151.58C185.199 151.696 185.576 151.933 185.861 152.263C186.147 152.592 186.329 152.999 186.383 153.432C186.383 153.453 186.383 153.47 186.383 153.488C186.232 153.576 186.084 153.664 185.94 153.759C185.758 153.88 185.617 154.053 185.535 154.255C185.453 154.458 185.434 154.681 185.482 154.894C185.529 155.107 185.64 155.301 185.799 155.451C185.959 155.6 186.16 155.697 186.376 155.73H186.398C186.345 156.273 186.251 156.812 186.116 157.34C187.418 162.373 184.606 164.205 180.587 164.289C180.499 164.335 180.415 164.38 180.323 164.423C180.731 165.57 181.057 166.744 181.298 167.937C181.513 168.987 181.664 170.05 181.749 171.118C181.852 172.464 181.846 173.816 181.731 175.16V175.111C182.021 173.616 182.819 172.266 183.99 171.29C185.732 169.863 188.192 169.34 190.068 168.19C190.268 168.062 190.5 167.993 190.737 167.993C190.975 167.992 191.207 168.059 191.408 168.186C191.608 168.314 191.768 168.495 191.868 168.71C191.968 168.925 192.004 169.165 191.972 169.4V169.449C191.692 169.563 191.419 169.694 191.156 169.842C191.004 169.927 190.857 170.018 190.712 170.113C190.531 170.234 190.391 170.407 190.31 170.609C190.229 170.812 190.211 171.033 190.258 171.246C190.305 171.458 190.415 171.652 190.574 171.801C190.733 171.95 190.933 172.048 191.149 172.081H191.173H191.219C190.739 173.221 190.067 174.27 189.234 175.185C188.418 179.575 184.919 179.993 181.178 178.7C180.772 180.481 180.183 182.216 179.419 183.877H173.084C173.059 183.807 173.038 183.733 173.021 183.663C173.609 183.7 174.2 183.665 174.78 183.557L173.373 181.824L173.344 181.789C173.105 181.494 172.862 181.202 172.641 180.907C172.626 180.002 172.729 179.1 172.947 178.222L172.904 178.26Z" fill="#F2F2F2"/>
<path d="M56.2207 183.582C56.2207 183.693 56.2648 183.799 56.3434 183.877C56.4219 183.956 56.5284 184 56.6395 184H191.531C191.586 184 191.641 183.989 191.692 183.968C191.743 183.947 191.789 183.916 191.828 183.877C191.867 183.839 191.897 183.793 191.918 183.742C191.939 183.691 191.95 183.637 191.95 183.582C191.95 183.527 191.939 183.472 191.918 183.422C191.897 183.371 191.867 183.325 191.828 183.286C191.789 183.247 191.743 183.216 191.692 183.195C191.641 183.174 191.586 183.163 191.531 183.163H56.6395C56.5284 183.163 56.4219 183.208 56.3434 183.286C56.2648 183.364 56.2207 183.471 56.2207 183.582Z" fill="#CCCCCC"/>
<path d="M76.6892 183.824H14.6013C10.9626 183.82 7.47417 182.374 4.90118 179.804C2.32819 177.235 0.880633 173.751 0.875977 170.117V36.8457C0.880633 33.2116 2.32819 29.7277 4.90118 27.158C7.47417 24.5883 10.9626 23.1426 14.6013 23.138H76.6892C80.3276 23.1435 83.8155 24.5895 86.3883 27.159C88.9611 29.7285 90.4089 33.2119 90.4145 36.8457V170.117C90.4089 173.75 88.9611 177.234 86.3883 179.803C83.8155 182.373 80.3276 183.819 76.6892 183.824Z" fill="#3F3D56"/>
<path d="M90.4215 72.1519C90.2675 72.1519 90.1198 72.213 90.0109 72.3218C89.902 72.4305 89.8408 72.578 89.8408 72.7318V91.297C89.8408 91.4509 89.902 91.5984 90.0109 91.7071C90.1198 91.8159 90.2675 91.877 90.4215 91.877C90.5755 91.877 90.7232 91.8159 90.8321 91.7071C90.941 91.5984 91.0022 91.4509 91.0022 91.297V72.7318C91.0022 72.578 90.941 72.4305 90.8321 72.3218C90.7232 72.213 90.5755 72.1519 90.4215 72.1519Z" fill="#3F3D56"/>
<path d="M89.1129 36.8457V170.117C89.1134 173.268 87.9134 176.301 85.7565 178.6C83.5997 180.9 80.6475 182.294 77.4992 182.499C77.4042 182.499 77.3091 182.499 77.2106 182.499C77.0382 182.499 76.8587 182.499 76.6933 182.499L74.8878 182.366C73.7089 182.278 71.9915 182.148 69.8517 181.975L67.8175 181.814C66.4098 181.698 64.8332 181.571 63.158 181.424C62.4893 181.371 61.796 181.308 61.0921 181.248C57.4848 180.939 53.4446 180.577 49.1827 180.162C48.4789 180.095 47.7398 180.028 47.0078 179.954L46.4271 179.895C43.3829 179.606 2.17871 171.663 2.17871 170.117V36.8457C2.17825 35.2162 2.49927 33.6026 3.12343 32.0971C3.74759 30.5916 4.66266 29.2236 5.81635 28.0714C6.97004 26.9192 8.33975 26.0053 9.84721 25.3819C11.3547 24.7586 12.9703 24.438 14.6019 24.4384H22.0206C22.5912 24.4434 23.1389 24.6634 23.5539 25.0544C23.969 25.4455 24.2208 25.9787 24.2589 26.5473C24.2589 26.6246 24.2589 26.7055 24.2906 26.7828C24.4093 27.3581 24.7252 27.874 25.1839 28.2416C25.6426 28.6093 26.2153 28.8056 26.8034 28.7968H64.4883C65.0765 28.8063 65.6496 28.6102 66.1084 28.2425C66.5672 27.8747 66.883 27.3584 67.0011 26.7828C67.0011 26.7055 67.0257 26.6246 67.0327 26.5473C67.0717 25.979 67.3237 25.4463 67.7386 25.0554C68.1535 24.6645 68.7007 24.4442 69.271 24.4384H76.6897C78.3213 24.438 79.937 24.7586 81.4444 25.3819C82.9519 26.0053 84.3216 26.9192 85.4753 28.0714C86.629 29.2236 87.5441 30.5916 88.1682 32.0971C88.7924 33.6026 89.1134 35.2162 89.1129 36.8457Z" fill="white"/>
<path d="M0.580688 58.2298C0.42668 58.2298 0.27898 58.2909 0.170079 58.3996C0.0611794 58.5084 0 58.6559 0 58.8097L0 63.4493C0 63.6031 0.0611794 63.7506 0.170079 63.8593C0.27898 63.9681 0.42668 64.0292 0.580688 64.0292C0.734696 64.0292 0.882396 63.9681 0.991296 63.8593C1.1002 63.7506 1.16138 63.6031 1.16138 63.4493V58.8097C1.16138 58.6559 1.1002 58.5084 0.991296 58.3996C0.882396 58.2909 0.734696 58.2298 0.580688 58.2298Z" fill="#3F3D56"/>
<path d="M0.580688 72.1519C0.42668 72.1519 0.27898 72.213 0.170079 72.3218C0.0611794 72.4305 0 72.578 0 72.7318L0 81.7227C0 81.8765 0.0611794 82.024 0.170079 82.1328C0.27898 82.2416 0.42668 82.3027 0.580688 82.3027C0.734696 82.3027 0.882396 82.2416 0.991296 82.1328C1.1002 82.024 1.16138 81.8765 1.16138 81.7227V72.7318C1.16138 72.578 1.1002 72.4305 0.991296 72.3218C0.882396 72.213 0.734696 72.1519 0.580688 72.1519Z" fill="#3F3D56"/>
<path d="M0.580688 84.9142C0.42668 84.9142 0.27898 84.9753 0.170079 85.084C0.0611794 85.1928 0 85.3403 0 85.4941L0 94.485C0 94.6388 0.0611794 94.7863 0.170079 94.895C0.27898 95.0038 0.42668 95.0649 0.580688 95.0649C0.734696 95.0649 0.882396 95.0038 0.991296 94.895C1.1002 94.7863 1.16138 94.6388 1.16138 94.485V85.4941C1.16138 85.3403 1.1002 85.1928 0.991296 85.084C0.882396 84.9753 0.734696 84.9142 0.580688 84.9142Z" fill="#3F3D56"/>
<path d="M21.8167 26.47H10.7097C10.6494 26.47 10.6006 26.5188 10.6006 26.5789V27.8126C10.6006 27.8728 10.6494 27.9216 10.7097 27.9216H21.8167C21.8769 27.9216 21.9258 27.8728 21.9258 27.8126V26.5789C21.9258 26.5188 21.8769 26.47 21.8167 26.47Z" fill="#E6E6E6"/>
<path d="M71.1077 27.9181C71.7491 27.9181 72.269 27.3988 72.269 26.7582C72.269 26.1176 71.7491 25.5983 71.1077 25.5983C70.4663 25.5983 69.9463 26.1176 69.9463 26.7582C69.9463 27.3988 70.4663 27.9181 71.1077 27.9181Z" fill="#E6E6E6"/>
<path d="M74.303 27.9181C74.9444 27.9181 75.4643 27.3988 75.4643 26.7582C75.4643 26.1176 74.9444 25.5983 74.303 25.5983C73.6616 25.5983 73.1416 26.1176 73.1416 26.7582C73.1416 27.3988 73.6616 27.9181 74.303 27.9181Z" fill="#E6E6E6"/>
<path d="M77.4954 27.9181C78.1368 27.9181 78.6567 27.3988 78.6567 26.7582C78.6567 26.1176 78.1368 25.5983 77.4954 25.5983C76.854 25.5983 76.334 26.1176 76.334 26.7582C76.334 27.3988 76.854 27.9181 77.4954 27.9181Z" fill="#E6E6E6"/>
<path d="M70.1362 104.924H20.8657C20.4924 104.924 20.1343 104.776 19.8703 104.512C19.6063 104.248 19.458 103.891 19.458 103.518C19.458 103.145 19.6063 102.788 19.8703 102.524C20.1343 102.26 20.4924 102.112 20.8657 102.112H70.1362C70.5096 102.112 70.8676 102.26 71.1316 102.524C71.3956 102.788 71.5439 103.145 71.5439 103.518C71.5439 103.891 71.3956 104.248 71.1316 104.512C70.8676 104.776 70.5096 104.924 70.1362 104.924Z" fill="#E6E6E6"/>
<path d="M45.6777 159.403C56.9509 159.403 66.0897 150.276 66.0897 139.018C66.0897 127.759 56.9509 118.632 45.6777 118.632C34.4044 118.632 25.2656 127.759 25.2656 139.018C25.2656 150.276 34.4044 159.403 45.6777 159.403Z" fill="#FF621F"/>
<path d="M48.9181 132.36C47.1937 132.431 45.2475 132.55 43.9911 133.868C42.886 135.014 42.6432 136.719 43.7658 137.942C44.8885 139.165 46.6376 139.348 47.9362 140.293C49.4566 141.418 49.2349 143.643 47.7603 144.708C46.0252 145.966 43.7799 145.379 42.1927 144.184C41.7845 143.878 41.3903 144.564 41.7915 144.866C43.2168 145.921 45.0715 146.536 46.8312 146.023C47.6156 145.82 48.3187 145.381 48.8455 144.767C49.3723 144.152 49.6974 143.39 49.7768 142.585C49.842 141.777 49.6036 140.974 49.1082 140.332C48.5493 139.702 47.8433 139.219 47.0529 138.926C45.7296 138.35 43.4526 137.601 43.8362 135.724C44.3043 133.45 47.0775 133.236 48.9357 133.158C49.4425 133.137 49.446 132.346 48.9357 132.368L48.9181 132.36Z" fill="white"/>
<path d="M45.7268 131.285L45.6494 148.645C45.6587 148.743 45.7044 148.834 45.7777 148.901C45.8509 148.968 45.9463 149.004 46.0453 149.004C46.1443 149.004 46.2398 148.968 46.313 148.901C46.3862 148.834 46.432 148.743 46.4413 148.645L46.5187 131.285C46.5094 131.187 46.4636 131.095 46.3904 131.029C46.3172 130.962 46.2218 130.925 46.1228 130.925C46.0238 130.925 45.9283 130.962 45.8551 131.029C45.7819 131.095 45.7361 131.187 45.7268 131.285Z" fill="white"/>
<path d="M153.826 0H53.173C51.3996 0 49.6988 0.703586 48.4448 1.95598C47.1908 3.20837 46.4863 4.90698 46.4863 6.67813V75.5683C46.4863 77.3394 47.1908 79.038 48.4448 80.2904C49.6988 81.5428 51.3996 82.2464 53.173 82.2464H153.826C155.599 82.2464 157.3 81.5428 158.554 80.2904C159.808 79.038 160.512 77.3394 160.512 75.5683V6.67813C160.512 4.90698 159.808 3.20837 158.554 1.95598C157.3 0.703586 155.599 0 153.826 0Z" fill="white"/>
<path d="M103.042 40.9545C109.262 40.9545 114.304 35.9189 114.304 29.7071C114.304 23.4954 109.262 18.4597 103.042 18.4597C96.8224 18.4597 91.7803 23.4954 91.7803 29.7071C91.7803 35.9189 96.8224 40.9545 103.042 40.9545Z" fill="#FF621F"/>
<path d="M105.179 24.688C103.771 24.7442 102.215 24.8321 101.16 25.869C100.287 26.7266 99.9807 28.0622 100.787 29.0745C101.593 30.0867 103.035 30.3398 104.137 31.0181C104.477 31.2058 104.762 31.4784 104.965 31.8092C105.168 32.1401 105.282 32.5178 105.295 32.9056C105.298 33.2839 105.216 33.6581 105.053 33.9998C104.89 34.3414 104.651 34.6415 104.355 34.8774C102.898 36.0619 100.906 35.5804 99.5232 34.5259C99.2522 34.3221 98.9882 34.779 99.2592 34.9793C100.403 35.8369 101.874 36.336 103.299 35.967C103.948 35.8207 104.536 35.479 104.985 34.9881C105.433 34.4972 105.719 33.8807 105.805 33.2219C105.956 31.7738 105.003 30.7862 103.767 30.2203C102.638 29.7036 100.656 29.1658 100.843 27.542C101.079 25.4964 103.584 25.2679 105.179 25.2047C105.531 25.2047 105.531 24.6634 105.179 24.6774V24.688Z" fill="white"/>
<path d="M102.765 23.732L102.701 38.1954C102.701 38.2653 102.729 38.3323 102.778 38.3818C102.828 38.4312 102.895 38.459 102.965 38.459C103.035 38.459 103.102 38.4312 103.152 38.3818C103.201 38.3323 103.229 38.2653 103.229 38.1954L103.292 23.732C103.292 23.662 103.265 23.595 103.215 23.5456C103.166 23.4961 103.098 23.4684 103.028 23.4684C102.958 23.4684 102.891 23.4961 102.842 23.5456C102.792 23.595 102.765 23.662 102.765 23.732Z" fill="white"/>
<path d="M153.826 0H53.173C51.3996 0 49.6988 0.703586 48.4448 1.95598C47.1908 3.20837 46.4863 4.90698 46.4863 6.67813V75.5683C46.4863 77.3394 47.1908 79.038 48.4448 80.2904C49.6988 81.5428 51.3996 82.2464 53.173 82.2464H153.826C155.599 82.2464 157.3 81.5428 158.554 80.2904C159.808 79.038 160.512 77.3394 160.512 75.5683V6.67813C160.512 4.90698 159.808 3.20837 158.554 1.95598C157.3 0.703586 155.599 0 153.826 0ZM159.808 75.5683C159.808 77.153 159.178 78.6728 158.056 79.7934C156.934 80.9139 155.412 81.5435 153.826 81.5435H53.173C51.5863 81.5435 50.0645 80.9139 48.9425 79.7934C47.8205 78.6728 47.1902 77.153 47.1902 75.5683V6.67813C47.1902 5.09342 47.8205 3.57361 48.9425 2.45305C50.0645 1.33249 51.5863 0.702961 53.173 0.702961H153.826C155.412 0.702961 156.934 1.33249 158.056 2.45305C159.178 3.57361 159.808 5.09342 159.808 6.67813V75.5683Z" fill="#3F3D56"/>
<path d="M91.904 6.80115H82.0287C81.7991 6.81548 81.5835 6.9167 81.4259 7.08419C81.2684 7.25169 81.1807 7.47287 81.1807 7.70269C81.1807 7.93252 81.2684 8.1537 81.4259 8.3212C81.5835 8.48869 81.7991 8.58991 82.0287 8.60424H91.904C92.1336 8.58991 92.3492 8.48869 92.5067 8.3212C92.6643 8.1537 92.752 7.93252 92.752 7.70269C92.752 7.47287 92.6643 7.25169 92.5067 7.08419C92.3492 6.9167 92.1336 6.81548 91.904 6.80115Z" fill="#E6E6E6"/>
<path d="M108.444 6.80115H98.5688C98.3391 6.81548 98.1235 6.9167 97.966 7.08419C97.8084 7.25169 97.7207 7.47287 97.7207 7.70269C97.7207 7.93252 97.8084 8.1537 97.966 8.3212C98.1235 8.48869 98.3391 8.58991 98.5688 8.60424H108.444C108.674 8.58991 108.889 8.48869 109.047 8.3212C109.204 8.1537 109.292 7.93252 109.292 7.70269C109.292 7.47287 109.204 7.25169 109.047 7.08419C108.889 6.9167 108.674 6.81548 108.444 6.80115Z" fill="#E6E6E6"/>
<path d="M124.985 6.80115H115.11C114.88 6.81548 114.665 6.9167 114.507 7.08419C114.349 7.25169 114.262 7.47287 114.262 7.70269C114.262 7.93252 114.349 8.1537 114.507 8.3212C114.665 8.48869 114.88 8.58991 115.11 8.60424H124.985C125.215 8.58991 125.43 8.48869 125.588 8.3212C125.745 8.1537 125.833 7.93252 125.833 7.70269C125.833 7.47287 125.745 7.25169 125.588 7.08419C125.43 6.9167 125.215 6.81548 124.985 6.80115Z" fill="#E6E6E6"/>
<path d="M141.272 47.2812H65.7407C64.2299 47.2821 62.7812 47.8819 61.7128 48.9489C60.6445 50.0159 60.0439 51.4627 60.043 52.9716V58.1103C60.0439 59.6192 60.6445 61.066 61.7128 62.133C62.7812 63.2 64.2299 63.7998 65.7407 63.8007H141.272C142.783 63.7998 144.232 63.2 145.3 62.133C146.369 61.066 146.969 59.6192 146.97 58.1103V52.9716C146.969 51.4627 146.369 50.0159 145.3 48.9489C144.232 47.8819 142.783 47.2821 141.272 47.2812Z" fill="#FF621F"/>
<path d="M25.7548 74.3346L22.876 72.9638C24.062 74.6193 25.0861 77.2062 25.6351 79.2659C26.5642 77.3468 28.0599 75.0024 29.538 73.6L26.4798 74.3873C28.3661 65.1539 35.4611 58.5285 43.5837 58.5285V57.8256C35.081 57.8256 27.6798 64.7286 25.7548 74.3346Z" fill="#3F3D56"/>
<path d="M39.0851 88.4044H20.7847C20.4113 88.4044 20.0533 88.2562 19.7893 87.9926C19.5253 87.7289 19.377 87.3713 19.377 86.9984C19.377 86.6256 19.5253 86.268 19.7893 86.0043C20.0533 85.7406 20.4113 85.5925 20.7847 85.5925H39.0851C39.4585 85.5925 39.8166 85.7406 40.0806 86.0043C40.3446 86.268 40.4929 86.6256 40.4929 86.9984C40.4929 87.3713 40.3446 87.7289 40.0806 87.9926C39.8166 88.2562 39.4585 88.4044 39.0851 88.4044Z" fill="#E6E6E6"/>
<path d="M160.826 83.8246L160.639 98.179L157.064 110.973L154.206 109.908L155.477 98.179L155.308 82.3097L160.826 83.8246Z" fill="#FFB6B6"/>
<path d="M157.056 113.041C157.392 111.202 156.777 109.55 155.683 109.351C154.589 109.152 153.431 110.481 153.095 112.321C152.76 114.16 153.375 115.812 154.469 116.011C155.563 116.21 156.721 114.88 157.056 113.041Z" fill="#FFB6B6"/>
<path d="M156.487 66.7321C156.487 66.7321 162.614 66.8164 162.607 70.0676C162.607 71.9023 162.209 88.5625 161.111 98.6852C160.263 106.488 158.648 108.527 158.648 108.527L154.776 99.7396L156.487 66.7321Z" fill="#E6E6E6"/>
<path d="M156.328 96.0596H135.638C137.373 92.1933 138.453 88.5133 136.771 85.5855L156.328 84.4537C155.349 88.4079 155.23 92.2847 156.328 96.0596Z" fill="#FFB6B6"/>
<path d="M153.795 61.8114L145.577 61.2455L142.177 65.4914L140.453 65.8042C139.203 66.03 138.077 66.7008 137.284 67.6922C136.492 68.6836 136.086 69.9284 136.142 71.1959L136.814 86.4185L156.459 87.849L161.164 68.0255L155.495 65.7725L153.795 61.8114Z" fill="#E6E6E6"/>
<path d="M103.654 66.4017C104.194 66.8727 104.612 67.4656 104.875 68.131L110.746 72.774L108.451 75.498L102.743 70.4964C102.052 70.3067 101.417 69.9534 100.892 69.4666C99.5613 68.2716 99.1003 66.6161 99.8604 65.769C100.621 64.9219 102.324 65.2066 103.654 66.4017Z" fill="#FFB6B6"/>
<path d="M145.161 70.2961L122.666 85.48L106.54 74.2713L108.961 69.8919L121.652 77.273L133.357 68.2962C137.524 64.3736 142.747 65.1328 145.161 70.2961Z" fill="#E6E6E6"/>
<path d="M149.18 59.9731C152.548 59.9731 155.279 57.246 155.279 53.882C155.279 50.5179 152.548 47.7908 149.18 47.7908C145.812 47.7908 143.081 50.5179 143.081 53.882C143.081 57.246 145.812 59.9731 149.18 59.9731Z" fill="#FFB6B6"/>
<path d="M157.469 52.3882V53.5691L150.592 51.636L145.436 52.7221C145.376 51.9362 145.145 51.1731 144.757 50.4866C145.028 51.5798 145.056 52.4233 144.757 52.8627L144.053 53.0068C143.94 52.6974 143.722 52.4375 143.437 52.2722C143.424 52.262 143.408 52.2548 143.392 52.2512C143.376 52.2476 143.359 52.2475 143.342 52.2511C143.293 52.2687 143.289 52.3319 143.289 52.3811C143.289 52.6412 143.289 52.9013 143.314 53.1614L141.322 53.5762V52.3952C139.411 48.1001 144.447 44.3849 149.385 44.3463C150.443 44.3454 151.492 44.5529 152.47 44.9571C153.448 45.3613 154.337 45.9541 155.086 46.7017C155.834 47.4493 156.428 48.337 156.832 49.3139C157.237 50.2909 157.445 51.3379 157.444 52.3952L157.469 52.3882Z" fill="#2F2E41"/>
<path d="M161.337 66.233L160.819 66.1908C160.855 66.0221 160.893 65.8393 160.925 65.6847C161.213 64.2787 160.573 62.451 160.534 61.0803C160.288 62.5284 160.707 64.3033 160.274 65.6776C160.228 65.8288 158.349 66.8129 158.296 66.964C156.216 66.2013 154.052 63.7761 151.609 65.2066C150.159 66.0467 148.505 65.6776 146.858 65.2945C146.45 65.1996 146.394 63.1856 145.989 63.1118C145.267 62.9677 144.205 64.7954 143.525 64.8692L146.341 53.9733C146.341 48.0439 145.792 41.8262 153.309 43.921C155.199 44.4482 157.071 44.863 158.468 46.42C159.959 48.1826 160.903 50.3408 161.185 52.6307C161.396 54.1315 162.72 59.2174 161.323 66.233H161.337Z" fill="#2F2E41"/>
<path d="M156.483 175.803L153.126 175.881L151.257 160.823L156.209 160.707L156.483 175.803Z" fill="#FFB7B7"/>
<path d="M144.968 182.798C144.951 183.052 145.037 183.303 145.205 183.495C145.373 183.686 145.611 183.804 145.865 183.821H152.527C152.778 182.991 153.206 182.225 153.78 181.576C154.355 180.926 155.063 180.408 155.857 180.056L156.04 183.821H159.478L159.073 177.768C159.073 177.768 159.992 174.531 158.081 172.876C156.17 171.22 157.729 171.449 157.729 171.449L156.962 167.702L151.767 168.313L151.728 174.194L149.219 180.032L145.524 181.856C145.355 181.947 145.215 182.084 145.119 182.25C145.023 182.416 144.976 182.606 144.982 182.798H144.968Z" fill="#2F2E41"/>
<path d="M146.27 173.35L143.046 174.278L137.408 160.184L142.17 158.816L146.27 173.35Z" fill="#FFB7B7"/>
<path d="M136.901 183.033C136.951 183.284 137.097 183.504 137.309 183.647C137.52 183.79 137.78 183.844 138.031 183.796L144.475 182.109C144.508 181.241 144.728 180.391 145.122 179.617C145.516 178.842 146.073 178.162 146.755 177.624L147.889 181.216L151.214 180.348L149.272 174.598C149.272 174.598 149.339 171.231 147.072 170.113C144.806 168.995 146.368 168.827 146.368 168.827L144.689 165.393L139.805 167.305L141.262 173.002L140.308 179.287L137.197 181.99C137.055 182.121 136.953 182.289 136.903 182.476C136.852 182.662 136.856 182.859 136.912 183.044L136.901 183.033Z" fill="#2F2E41"/>
<path d="M154.424 95.1703L156.536 95.8733C159.837 101.961 161.237 110.049 161.051 119.802L157.313 163.6H151.165L146.674 114.808L138.756 133.12L144.549 163.6L138.756 164.191L127.086 132.508L135.212 95.673L154.424 95.1844V95.1703Z" fill="#2F2E41"/>
</g>
<defs>
<clipPath id="clip0_85_1188">
<rect width="192" height="184" fill="white"/>
</clipPath>
</defs>
</svg>
